<?xml version="1.0" encoding="UTF-8"?>
<svg id="Layer_2" data-name="Layer 2" xmlns="http://www.w3.org/2000/svg" viewBox="0 0 361.48 324.06">
  <defs>
    <style>
      .cls-1 {
        fill: #231f20;
        stroke: #000;
        stroke-miterlimit: 10;
      }
    </style>
  </defs>
  <g id="Cup_cover" data-name="Cup cover">
    <path class="cls-1" d="M360.91,192.63c-6.6-37.97-23.87-63.35-45.43-71.63-5.04-1.82-8.78-2.46-13.32.95-4.21,3.07-5.85,9.09-3.72,13.7,1.23,2.73,3.49,4.77,5.84,6.62,4.22,3.24,29.56,28.64,28.88,56.34-.65,26.35-37.39,64.89-38.88,52.03-1.91-13.04-2.66-29.27-4.94-42.46-3.54-26.01-13.92-60.06-39.92-82.13-8.32-7.61-17.62-14.38-26.59-20.29-7.48-5.02-12.8-7.71-20.09-14.46-11.6-10.97-18.19-20.04-29.59-33.03-15.7-18.8-31.95-36.56-50.63-52.43-5.79-4.42-12.13-10.24-12.28,1.89-.39,7.23-.71,14.95-1.34,22.25-.91,7.77-1.78,26.44-8.11,30.22-2.33,1.47-5.01,1.99-7.73,2.63-4.37.95-9.17,1.78-13.74,1.56-7.65-.4-14.85-4.03-21.75-7.35-5.9-2.91-11.1-5.64-18.02-8.59-10.81-4.5-23.45-9.22-34.78-10.55-3-.22-4.46.29-4.25,2.17.38,2.79,4.41,9.55,6.51,13.47,4.95,8.99,9.63,18.56,12.88,28.01,3.87,11.71,6.82,20.55,8.31,31.69,1.28,25.67.57,58.2,3.66,81.8,1.53,13.27,4.3,22.97,7.21,36.45,3.27,14.57,7.32,32.6,9.32,41.42,1.13,5.32,2.48,10.08,4.81,15.11,2.29,4.76,3.89,8.81,7.15,11.9,27.87,17.76,83.1,24.87,119.3,23.48,8.38-.35,15.98-1.16,24.65-2.44,27.21-3.45,61.05-15.79,67.22-19.42,7.82-3.58,18.6-6.87,26.51-11.77,14.4-8.92,64.76-40.52,62.89-97.05,0-.02-.02-.07-.02-.07ZM69.28,162.49c-4.96-.05-8.87-4.14-11.15-8.42-5.22-10.12-5.44-23.48-1.5-34.02,6.46-16.7,20.94-14.76,26.11,1.9,3.14,9.3,2.59,22.91-1.8,31.4-2.83,5.71-7.12,9.15-11.52,9.15h-.14ZM118.44,153.81c-4.97-.04-8.87-4.14-11.15-8.43-5.2-10.09-5.46-23.4-1.5-34.02,6.46-16.7,20.95-14.76,26.12,1.9,3.14,9.3,2.59,22.91-1.8,31.4-2.83,5.72-7.13,9.15-11.53,9.16h-.14Z"/>
  </g>
</svg>