<?xml version="1.0" encoding="UTF-8"?>
<svg id="Layer_2" data-name="Layer 2" xmlns="http://www.w3.org/2000/svg" viewBox="0 0 361.49 316">
  <defs>
    <style>
      .cls-1 {
        fill: #231f20;
        stroke: #000;
        stroke-miterlimit: 10;
      }
    </style>
  </defs>
  <g id="Layer_2-2" data-name="Layer 2">
    <g id="Cup_cover" data-name="Cup cover">
      <path class="cls-1" d="M.57,192.66s-.02.05-.02.07c-1.87,56.53,48.49,88.13,62.89,97.05,7.91,4.9,18.69,8.19,26.51,11.77,6.17,3.63,76.38,13.44,101.3,13.84,36.2,1.39,112.66-9.62,117.34-18.6,34.34-31.61,23.39-157.87,24.67-183.54,1.49-11.14,4.44-19.98,8.31-31.69,3.25-9.45,7.93-19.02,12.88-28.01,2.1-3.92,6.13-10.68,6.51-13.47.21-1.88-1.25-2.39-4.25-2.17-11.33,1.33-23.97,6.05-34.78,10.55-6.92,2.95-12.12,5.68-18.02,8.59-6.9,3.32-14.1,6.95-21.75,7.35-4.57.22-9.37-.61-13.74-1.56-2.72-.64-5.4-1.16-7.73-2.63-6.33-3.78-7.2-22.45-8.11-30.22-.63-7.3-.95-15.02-1.34-22.25-.15-12.13-6.49-6.31-12.28-1.89-18.68,15.87-34.93,33.63-50.63,52.43-11.4,12.99-17.99,22.06-29.59,33.03-7.29,6.75-12.61,9.44-20.09,14.46-8.97,5.91-18.27,12.68-26.59,20.29-26,22.07-36.38,56.12-39.92,82.13-2.28,13.19-3.03,29.42-4.94,42.46-1.49,12.86-38.23-25.68-38.88-52.03-.68-27.7,24.66-53.1,28.88-56.34,2.35-1.85,4.61-3.89,5.84-6.62,2.13-4.61.49-10.63-3.72-13.7-4.54-3.41-8.28-2.77-13.32-.95C24.45,129.29,7.18,154.67.58,192.64v.02ZM292.21,162.51h-.14c-4.4,0-8.69-3.44-11.52-9.15-4.39-8.49-4.94-22.1-1.8-31.4,5.17-16.66,19.65-18.6,26.11-1.9,3.94,10.54,3.72,23.9-1.5,34.02-2.28,4.28-6.19,8.37-11.15,8.42h0ZM243.05,153.83h-.14c-4.4-.01-8.7-3.44-11.53-9.16-4.39-8.49-4.94-22.1-1.8-31.4,5.17-16.66,19.66-18.6,26.12-1.9,3.96,10.62,3.7,23.93-1.5,34.02-2.28,4.29-6.18,8.39-11.15,8.43h0Z"/>
    </g>
  </g>
</svg>